{"scene": 0, "meshes": [{"primitives": [{"indices": 1, "attributes": {"POSITION": 0}, "mode": 4}]}], "asset": {"version": "2.0", "generator": "CS460 Magic Fingers"}, "nodes": [{"mesh": 0}], "bufferViews": [{"buffer": 0, "byteLength": 60, "byteOffset": 0, "target": 34962}, {"buffer": 1, "byteLength": 48, "byteOffset": 0, "target": 34963}], "scenes": [{"nodes": [0]}], "buffers": [{"byteLength": 60, "uri": "data:application/octet-stream;base64,"}, {"byteLength": 48, "uri": "data:application/octet-stream;base64,"}], "accessors": [{"count": 5, "min": [0, 0, 0], "max": [3, 3, 6], "bufferView": 0, "componentType": 5126, "byteOffset": 0, "type": "VEC3"}, {"count": 6, "min": [0], "max": [3], "bufferView": 1, "componentType": 5123, "byteOffset": 0, "type": "SCALAR"}]}