{"asset": {"version": "2.0", "generator": "CS460 Magic Fingers"}, "accessors": [{"bufferView": 0, "byteOffset": 0, "componentType": 5126, "count": 6906, "type": "VEC3", "max": [2.86531, 2.26573, 1.76234], "min": [-3.21184, -1.42853, -1.76105]}, {"bufferView": 1, "byteOffset": 0, "componentType": 5123, "count": 40782, "type": "SCALAR", "max": [6905], "min": [0]}], "bufferViews": [{"buffer": 0, "byteOffset": 0, "byteLength": 82872, "target": 34962}, {"buffer": 1, "byteOffset": 0, "byteLength": 81564, "target": 34963}], "buffers": [{"uri": "data:application/octet-stream;base64,", "byteLength": 82872}, {"uri": "data:application/octet-stream;base64,", "byteLength": 81564}], "materials": [{"pbrMetallicRoughness": {"baseColorFactor": [1.0, 0.766, 0.336, 1.0], "metallicFactor": 0.5, "roughnessFactor": 0.1}}], "meshes": [{"primitives": [{"mode": 4, "attributes": {"POSITION": 0}, "indices": 1, "materials": 0}]}], "nodes": [{"mesh": 0}], "scenes": [{"nodes": [0]}], "scene": 0}