{"asset": {"version": "2.0", "generator": "CS460 Magic Fingers"}, "accessors": [{"bufferView": 0, "byteOffset": 0, "componentType": 5126, "count": 62194, "type": "VEC3", "max": [15.61, 32.03, 4.267], "min": [-15.61, -0.008192, -5.456]}, {"bufferView": 1, "byteOffset": 0, "componentType": 5123, "count": 372024, "type": "SCALAR", "max": [62193], "min": [0]}], "bufferViews": [{"buffer": 0, "byteOffset": 0, "byteLength": 746328, "target": 34962}, {"buffer": 1, "byteOffset": 0, "byteLength": 744048, "target": 34963}], "buffers": [{"uri": "data:application/octet-stream;base64,", "byteLength": 746328}, {"uri": "data:application/octet-stream;base64,", "byteLength": 744048}], "meshes": [{"primitives": [{"mode": 4, "attributes": {"POSITION": 0}, "indices": 1}]}], "nodes": [{"mesh": 0}], "scenes": [{"nodes": [0]}], "scene": 0}
