{"asset": {"version": "2.0", "generator": "CS460 Magic Fingers"}, "accessors": [{"bufferView": 0, "byteOffset": 0, "componentType": 5126, "count": 6, "type": "VEC3", "max": [1.5, 1.5, 1.5], "min": [-1.5, -1.5, -1.5]}, {"bufferView": 1, "byteOffset": 0, "componentType": 5125, "count": 8, "type": "SCALAR", "max": [5], "min": [0]}], "bufferViews": [{"buffer": 0, "byteOffset": 0, "byteLength": 72, "target": 34962}, {"buffer": 1, "byteOffset": 0, "byteLength": 96, "target": 34963}], "buffers": [{"uri": "data:application/octet-stream;base64,", "byteLength": 72}, {"uri": "data:application/octet-stream;base64,", "byteLength": 96}], "meshes": [{"primitives": [{"mode": 4, "attributes": {"POSITION": 0}, "indices": 1}]}], "nodes": [{"mesh": 0}], "scenes": [{"nodes": [0]}], "scene": 0}
