{"asset": {"version": "2.0", "generator": "CS460 Magic Fingers"}, "accessors": [{"bufferView": 0, "byteOffset": 0, "componentType": 5126, "count": 468, "type": "VEC3", "max": [0.502694, 1.52005, 1.15842], "min": [-1.35711, -0.747847, -3.22377]}, {"bufferView": 1, "byteOffset": 0, "componentType": 5123, "count": 2202, "type": "SCALAR", "max": [467], "min": [0]}], "bufferViews": [{"buffer": 0, "byteOffset": 0, "byteLength": 5616, "target": 34962}, {"buffer": 1, "byteOffset": 0, "byteLength": 4404, "target": 34963}], "buffers": [{"uri": "data:application/octet-stream;base64,", "byteLength": 5616}, {"uri": "data:application/octet-stream;base64,", "byteLength": 4404}], "materials": [{"pbrMetallicRoughness": {"baseColorFactor": [1.0, 0.766, 0.336, 1.0], "metallicFactor": 0.5, "roughnessFactor": 0.1}}], "meshes": [{"primitives": [{"mode": 4, "attributes": {"POSITION": 0}, "indices": 1, "material": 0}]}], "nodes": [{"mesh": 0}], "scenes": [{"nodes": [0]}], "scene": 0}
