{"asset": {"version": "2.0", "generator": "CS460 Magic Fingers"}, "accessors": [{"bufferView": 0, "byteOffset": 0, "componentType": 5126, "count": 642, "type": "VEC3", "max": [1.0, 1.0, 1.0], "min": [-1.0, -1.0, -1.0]}, {"bufferView": 1, "byteOffset": 0, "componentType": 5123, "count": 3840, "type": "SCALAR", "max": [641], "min": [0]}], "bufferViews": [{"buffer": 0, "byteOffset": 0, "byteLength": 7704, "target": 34962}, {"buffer": 1, "byteOffset": 0, "byteLength": 7680, "target": 34963}], "buffers": [{"uri": "data:application/octet-stream;base64,", "byteLength": 7704}, {"uri": "data:application/octet-stream;base64,", "byteLength": 7680}], "meshes": [{"primitives": [{"mode": 4, "attributes": {"POSITION": 0}, "indices": 1}]}], "nodes": [{"mesh": 0}], "scenes": [{"nodes": [0]}], "scene": 0}