{"asset": {"version": "2.0", "generator": "CS460 Magic Fingers"}, "accessors": [{"bufferView": 0, "byteOffset": 0, "componentType": 5126, "count": 49971, "type": "VEC3", "max": [119.363, 181.241, 247.337], "min": [-119.323, -181.293, -247.268]}, {"bufferView": 1, "byteOffset": 0, "componentType": 5123, "count": 299814, "type": "SCALAR", "max": [49970], "min": [0]}], "bufferViews": [{"buffer": 0, "byteOffset": 0, "byteLength": 599652, "target": 34962}, {"buffer": 1, "byteOffset": 0, "byteLength": 599628, "target": 34963}], "buffers": [{"uri": "data:application/octet-stream;base64,", "byteLength": 599652}, {"uri": "data:application/octet-stream;base64,", "byteLength": 599628}], "meshes": [{"primitives": [{"mode": 4, "attributes": {"POSITION": 0}, "indices": 1}]}], "nodes": [{"mesh": 0}], "scenes": [{"nodes": [0]}], "scene": 0}
