{"asset": {"version": "2.0", "generator": "CS460 Magic Fingers"}, "accessors": [{"bufferView": 0, "byteOffset": 0, "componentType": 5126, "count": 3644, "type": "VEC3", "max": [3.434000015258789, 3.1500000953674316, 2.0], "min": [-3.0, 0.0, -2.0]}, {"bufferView": 1, "byteOffset": 0, "componentType": 5123, "count": 18960, "type": "SCALAR", "max": [3643], "min": [0]}], "bufferViews": [{"buffer": 0, "byteOffset": 0, "byteLength": 43728, "target": 34962}, {"buffer": 1, "byteOffset": 0, "byteLength": 37920, "target": 34963}], "buffers": [{"uri": "data:application/octet-stream;base64,", "byteLength": 43728}, {"uri": "data:application/octet-stream;base64,", "byteLength": 37920}], "meshes": [{"primitives": [{"mode": 4, "attributes": {"POSITION": 0}, "indices": 1}]}], "nodes": [{"mesh": 0}], "scenes": [{"nodes": [0]}], "scene": 0}