{"asset": {"version": "2.0", "generator": "CS460 JEMerator"}, "accessors": [{"bufferView": 0, "byteOffset": 0, "componentType": 5126, "count": 1177, "type": "VEC3", "max": [3.42963, 2.0, 3.15], "min": [-3.0, -2.0, 0.0]}, {"bufferView": 1, "byteOffset": 0, "componentType": 5125, "count": 1177, "type": "SCALAR", "max": [1176], "min": [0]}], "bufferViews": [{"buffer": 0, "byteOffset": 0, "byteLength": 14124, "target": 34962}, {"buffer": 1, "byteOffset": 0, "byteLength": 27072, "target": 34963}], "buffers": [{"uri": "data:application/octet-stream;base64,", "byteLength": 14124}, {"uri": "data:application/octet-stream;base64,", "byteLength": 27072}], "meshes": [{"primitives": [{"mode": 4, "attributes": {"POSITION": 0}, "indices": 1}]}], "nodes": [{"mesh": 0}], "scenes": [{"nodes": [0]}], "scene": 0}