{"asset": {"version": "2.0", "generator": "CS460 Magic Fingers"}, "accessors": [{"bufferView": 0, "byteOffset": 0, "componentType": 5126, "count": 1598, "type": "VEC3", "max": [17.0743, 20.8934, 14.0506], "min": [-17.0743, -20.8934, -14.0506]}, {"bufferView": 1, "byteOffset": 0, "componentType": 5123, "count": 9576, "type": "SCALAR", "max": [1597], "min": [0]}], "bufferViews": [{"buffer": 0, "byteOffset": 0, "byteLength": 19176, "target": 34962}, {"buffer": 1, "byteOffset": 0, "byteLength": 19152, "target": 34963}], "buffers": [{"uri": "data:application/octet-stream;base64,", "byteLength": 19176}, {"uri": "data:application/octet-stream;base64,", "byteLength": 19152}], "meshes": [{"primitives": [{"mode": 4, "attributes": {"POSITION": 0}, "indices": 1}]}], "nodes": [{"mesh": 0}], "scenes": [{"nodes": [0]}], "scene": 0}