{
  "accessors": [
    {
      "bufferView": 1,
      "componentType": 5126,
      "count": 65532,
      "max": [
        0.5877569317817688,
        0.61302971839904785,
        0.060611017048358917
      ],
      "min": [
        0.018417427316308022,
        0.056122265756130219,
        0.012136867269873619
      ],
      "type": "VEC3"
    },
    {
      "bufferView": 1,
      "byteOffset": 786384,
      "componentType": 5126,
      "count": 65532,
      "max": [
        1,
        1,
        1
      ],
      "min": [
        -1,
        -1,
        -1
      ],
      "type": "VEC3"
    },
    {
      "bufferView": 0,
      "componentType": 5125,
      "count": 186576,
      "max": [
        65531
      ],
      "min": [
        0
      ],
      "type": "SCALAR"
    },
    {
      "bufferView": 1,
      "byteOffset": 1572768,
      "componentType": 5126,
      "count": 65532,
      "max": [
        0.60617434978485107,
        0.656646728515625,
        0.092003464698791504
      ],
      "min": [
        1.1087461615488792e-08,
        8.2686639757412195e-09,
        -2.8642110905252594e-10
      ],
      "type": "VEC3"
    },
    {
      "bufferView": 1,
      "byteOffset": 2359152,
      "componentType": 5126,
      "count": 65532,
      "max": [
        1,
        1,
        1
      ],
      "min": [
        -1,
        -1,
        -1
      ],
      "type": "VEC3"
    },
    {
      "bufferView": 0,
      "byteOffset": 746304,
      "componentType": 5125,
      "count": 259407,
      "max": [
        65531
      ],
      "min": [
        0
      ],
      "type": "SCALAR"
    },
    {
      "bufferView": 1,
      "byteOffset": 3145536,
      "componentType": 5126,
      "count": 65532,
      "max": [
        0.35583847761154175,
        0.55114489793777466,
        0.076406590640544891
      ],
      "min": [
        0.12949249148368835,
        0.11809728294610977,
        0.0090662278234958649
      ],
      "type": "VEC3"
    },
    {
      "bufferView": 1,
      "byteOffset": 3931920,
      "componentType": 5126,
      "count": 65532,
      "max": [
        0.99998235702514648,
        0.9999120831489563,
        0.99999666213989258
      ],
      "min": [
        -0.99998956918716431,
        -0.99971407651901245,
        -0.99999934434890747
      ],
      "type": "VEC3"
    },
    {
      "bufferView": 0,
      "byteOffset": 1783932,
      "componentType": 5125,
      "count": 279024,
      "max": [
        65531
      ],
      "min": [
        0
      ],
      "type": "SCALAR"
    },
    {
      "bufferView": 1,
      "byteOffset": 4718304,
      "componentType": 5126,
      "count": 65532,
      "max": [
        0.34186598658561707,
        0.55068069696426392,
        0.076420120894908905
      ],
      "min": [
        0.13408808410167694,
        0.11722246557474136,
        0.0089311404153704643
      ],
      "type": "VEC3"
    },
    {
      "bufferView": 1,
      "byteOffset": 5504688,
      "componentType": 5126,
      "count": 65532,
      "max": [
        0.99997901916503906,
        0.99987113475799561,
        0.99997740983963013
      ],
      "min": [
        -0.99999439716339111,
        -0.99998390674591064,
        -0.99999713897705078
      ],
      "type": "VEC3"
    },
    {
      "bufferView": 0,
      "byteOffset": 2900028,
      "componentType": 5125,
      "count": 280056,
      "max": [
        65531
      ],
      "min": [
        0
      ],
      "type": "SCALAR"
    },
    {
      "bufferView": 1,
      "byteOffset": 6291072,
      "componentType": 5126,
      "count": 65532,
      "max": [
        0.33864918351173401,
        0.54959529638290405,
        0.076299421489238739
      ],
      "min": [
        0.16176882386207581,
        0.11828137189149857,
        0.0093740262091159821
      ],
      "type": "VEC3"
    },
    {
      "bufferView": 1,
      "byteOffset": 7077456,
      "componentType": 5126,
      "count": 65532,
      "max": [
        0.99998956918716431,
        0.99985069036483765,
        0.99999606609344482
      ],
      "min": [
        -0.99997478723526001,
        -0.99988692998886108,
        -0.99999809265136719
      ],
      "type": "VEC3"
    },
    {
      "bufferView": 0,
      "byteOffset": 4020252,
      "componentType": 5125,
      "count": 280830,
      "max": [
        65531
      ],
      "min": [
        0
      ],
      "type": "SCALAR"
    },
    {
      "bufferView": 1,
      "byteOffset": 7863840,
      "componentType": 5126,
      "count": 65532,
      "max": [
        0.34675401449203491,
        0.55180877447128296,
        0.076417438685894012
      ],
      "min": [
        0.14353102445602417,
        0.11877037584781647,
        0.0093740262091159821
      ],
      "type": "VEC3"
    },
    {
      "bufferView": 1,
      "byteOffset": 8650224,
      "componentType": 5126,
      "count": 65532,
      "max": [
        0.99998778104782104,
        0.99942672252655029,
        0.99999052286148071
      ],
      "min": [
        -0.99997895956039429,
        -0.99998247623443604,
        -0.99999994039535522
      ],
      "type": "VEC3"
    },
    {
      "bufferView": 0,
      "byteOffset": 5143572,
      "componentType": 5125,
      "count": 261447,
      "max": [
        65531
      ],
      "min": [
        0
      ],
      "type": "SCALAR"
    },
    {
      "bufferView": 1,
      "byteOffset": 9436608,
      "componentType": 5126,
      "count": 65532,
      "max": [
        0.47668185830116272,
        0.55061900615692139,
        0.080358557403087616
      ],
      "min": [
        0.12980426847934723,
        0.11710586398839951,
        0.009503060020506382
      ],
      "type": "VEC3"
    },
    {
      "bufferView": 1,
      "byteOffset": 10222992,
      "componentType": 5126,
      "count": 65532,
      "max": [
        0.99998229742050171,
        0.99987208843231201,
        0.99998694658279419
      ],
      "min": [
        -0.99998235702514648,
        -0.99991029500961304,
        -0.99999541044235229
      ],
      "type": "VEC3"
    },
    {
      "bufferView": 0,
      "byteOffset": 6189360,
      "componentType": 5125,
      "count": 237696,
      "max": [
        65531
      ],
      "min": [
        0
      ],
      "type": "SCALAR"
    },
    {
      "bufferView": 1,
      "byteOffset": 11009376,
      "componentType": 5126,
      "count": 65532,
      "max": [
        0.47345870733261108,
        0.55068069696426392,
        0.076420120894908905
      ],
      "min": [
        0.30308717489242554,
        0.11732558906078339,
        0.0089311404153704643
      ],
      "type": "VEC3"
    },
    {
      "bufferView": 1,
      "byteOffset": 11795760,
      "componentType": 5126,
      "count": 65532,
      "max": [
        0.99999439716339111,
        0.99991214275360107,
        0.99996554851531982
      ],
      "min": [
        -0.99998229742050171,
        -0.99998247623443604,
        -0.99996626377105713
      ],
      "type": "VEC3"
    },
    {
      "bufferView": 0,
      "byteOffset": 7140144,
      "componentType": 5125,
      "count": 287007,
      "max": [
        65531
      ],
      "min": [
        0
      ],
      "type": "SCALAR"
    },
    {
      "bufferView": 1,
      "byteOffset": 12582144,
      "componentType": 5126,
      "count": 65532,
      "max": [
        0.4626433253288269,
        0.55180877447128296,
        0.075847268104553223
      ],
      "min": [
        0.30308717489242554,
        0.11828137189149857,
        0.009159100241959095
      ],
      "type": "VEC3"
    },
    {
      "bufferView": 1,
      "byteOffset": 13368528,
      "componentType": 5126,
      "count": 65532,
      "max": [
        0.9999006986618042,
        0.99985069036483765,
        0.99999606609344482
      ],
      "min": [
        -0.99998235702514648,
        -0.99998390674591064,
        -0.99999779462814331
      ],
      "type": "VEC3"
    },
    {
      "bufferView": 0,
      "byteOffset": 8288172,
      "componentType": 5125,
      "count": 268302,
      "max": [
        65531
      ],
      "min": [
        0
      ],
      "type": "SCALAR"
    },
    {
      "bufferView": 1,
      "byteOffset": 14154912,
      "componentType": 5126,
      "count": 46232,
      "max": [
        0.60393315553665161,
        0.623646080493927,
        0.078948155045509338
      ],
      "min": [
        0.0022415434941649437,
        0.026143960654735565,
        0.0098008224740624428
      ],
      "type": "VEC3"
    },
    {
      "bufferView": 1,
      "byteOffset": 14709696,
      "componentType": 5126,
      "count": 46232,
      "max": [
        1,
        1,
        1
      ],
      "min": [
        -1,
        -1,
        -1
      ],
      "type": "VEC3"
    },
    {
      "bufferView": 0,
      "byteOffset": 9361380,
      "componentType": 5125,
      "count": 154311,
      "max": [
        46231
      ],
      "min": [
        0
      ],
      "type": "SCALAR"
    }
  ],
  "asset": {
    "extras": {
      "author": "wareFLO (https://sketchfab.com/wareFLO)",
      "license": "CC-BY-4.0 (http://creativecommons.org/licenses/by/4.0/)",
      "source": "https://sketchfab.com/3d-models/westworld-03f11a6c291e411090164004d128c5d9",
      "title": "Westworld"
    },
    "generator": "Sketchfab-9.76.0",
    "version": "2.0"
  },
  "bufferViews": [
    {
      "buffer": 0,
      "byteLength": 9978624,
      "byteOffset": 0,
      "name": "floatBufferViews",
      "target": 34963
    },
    {
      "buffer": 0,
      "byteLength": 15264480,
      "byteOffset": 9978624,
      "byteStride": 12,
      "name": "floatBufferViews",
      "target": 34962
    }
  ],
  "buffers": [
    {
      "byteLength": 25243104,
      "uri": "scene.bin"
    }
  ],
  "materials": [
    {
      "doubleSided": true,
      "name": "Scene_-_Root",
      "pbrMetallicRoughness": {
        "baseColorFactor": [
          0.52138647558812368,
          0.30335319689970935,
          0.30335319689970935,
          1
        ],
        "metallicFactor": 0.311927587134189,
        "roughnessFactor": 0.40231296152395757
      }
    }
  ],
  "meshes": [
    {
      "primitives": [
        {
          "attributes": {
            "NORMAL": 1,
            "POSITION": 0
          },
          "indices": 2,
          "material": 0,
          "mode": 4
        }
      ]
    },
    {
      "primitives": [
        {
          "attributes": {
            "NORMAL": 4,
            "POSITION": 3
          },
          "indices": 5,
          "material": 0,
          "mode": 4
        }
      ]
    },
    {
      "primitives": [
        {
          "attributes": {
            "NORMAL": 7,
            "POSITION": 6
          },
          "indices": 8,
          "material": 0,
          "mode": 4
        }
      ]
    },
    {
      "primitives": [
        {
          "attributes": {
            "NORMAL": 10,
            "POSITION": 9
          },
          "indices": 11,
          "material": 0,
          "mode": 4
        }
      ]
    },
    {
      "primitives": [
        {
          "attributes": {
            "NORMAL": 13,
            "POSITION": 12
          },
          "indices": 14,
          "material": 0,
          "mode": 4
        }
      ]
    },
    {
      "primitives": [
        {
          "attributes": {
            "NORMAL": 16,
            "POSITION": 15
          },
          "indices": 17,
          "material": 0,
          "mode": 4
        }
      ]
    },
    {
      "primitives": [
        {
          "attributes": {
            "NORMAL": 19,
            "POSITION": 18
          },
          "indices": 20,
          "material": 0,
          "mode": 4
        }
      ]
    },
    {
      "primitives": [
        {
          "attributes": {
            "NORMAL": 22,
            "POSITION": 21
          },
          "indices": 23,
          "material": 0,
          "mode": 4
        }
      ]
    },
    {
      "primitives": [
        {
          "attributes": {
            "NORMAL": 25,
            "POSITION": 24
          },
          "indices": 26,
          "material": 0,
          "mode": 4
        }
      ]
    },
    {
      "primitives": [
        {
          "attributes": {
            "NORMAL": 28,
            "POSITION": 27
          },
          "indices": 29,
          "material": 0,
          "mode": 4
        }
      ]
    }
  ],
  "nodes": [
    {
      "children": [
        1
      ],
      "name": "RootNode (gltf orientation matrix)",
      "rotation": [
        -0.70710678118654746,
        -0,
        -0,
        0.70710678118654757
      ]
    },
    {
      "children": [
        2
      ],
      "name": "RootNode (model correction matrix)"
    },
    {
      "children": [
        3,
        4,
        5,
        6,
        7,
        8,
        9,
        10,
        11,
        12
      ],
      "name": "female-drone-full-redo.stl.cleaner.materialmerger.gles"
    },
    {
      "mesh": 0,
      "name": ""
    },
    {
      "mesh": 1,
      "name": ""
    },
    {
      "mesh": 2,
      "name": ""
    },
    {
      "mesh": 3,
      "name": ""
    },
    {
      "mesh": 4,
      "name": ""
    },
    {
      "mesh": 5,
      "name": ""
    },
    {
      "mesh": 6,
      "name": ""
    },
    {
      "mesh": 7,
      "name": ""
    },
    {
      "mesh": 8,
      "name": ""
    },
    {
      "mesh": 9,
      "name": ""
    }
  ],
  "scene": 0,
  "scenes": [
    {
      "name": "OSG_Scene",
      "nodes": [
        0
      ]
    }
  ]
}

