

{
    "asset": {
      "version": "2.0",
      "generator": "CS460 Magic Fingers"
    },
    "accessors": [
      {
        "bufferView": 0,
        "byteOffset": 0,
        "componentType": 5126,
        "count": 7883,
        "type": "VEC3",
        "max": [
          1.92677,
          0.7475,
          4.155748
        ],
        "min": [
          -1.926769,
          -0.543714,
          -2.901802
        ]
      },
      {
        "bufferView": 1,
        "byteOffset": 0,
        "componentType": 5123,
        "count": 7883,
        "type": "SCALAR",
        "max": [
          7882
        ],
        "min": [
          0
        ]
      }
    ],
    "bufferViews": [
      {
        "buffer": 0,
        "byteOffset": 0,
        "byteLength": 94596,
        "target": 34962
      },
      {
        "buffer": 1,
        "byteOffset": 0,
        "byteLength": 44034,
        "target": 34963
      }
    ],
    "buffers": [
      {
        "uri": "data:application/octet-stream;base64,",
        "byteLength": 94596
      },
      {
        "uri": "data:application/octet-stream;base64,",
        "byteLength": 44034
      }
    ],
    "meshes": [
      {
        "primitives": [
          {
            "mode": 4,
            "attributes": {
              "POSITION": 0
            },
            "indices": 1
          }
        ]
      }
    ],
    "nodes": [
      {
        "mesh": 0
      }
    ],
    "scenes": [
      {
        "nodes": [
          0
        ]
      }
    ],
    "scene": 0
  }
  
  