{"asset": {"version": "2.0", "generator": "CS460 Magic Fingers"}, "materials": [{"pbrMetallicRoughness": {"baseColorFactor": [1.0, 0.766, 0.336, 1.0], "metallicFactor": 0.5, "roughnessFactor": 0.1}}], "accessors": [{"bufferView": 0, "byteOffset": 0, "componentType": 5126, "count": 440.0, "type": "VEC3", "max": [0.1475416, 0.09468666, 0.1084577], "min": [-0.1752726, -0.1281041, -0.1874805]}, {"bufferView": 1, "byteOffset": 0, "componentType": 5123, "count": 1342, "type": "SCALAR", "max": [439], "min": [1]}], "bufferViews": [{"buffer": 0, "byteOffset": 0, "byteLength": 5280, "target": 34962}, {"buffer": 1, "byteOffset": 0, "byteLength": 2684, "target": 34963}], "buffers": [{"uri": "data:application/octet-stream;base64,", "byteLength": 5280}, {"uri": "data:application/octet-stream;base64,", "byteLength": 2684}], "meshes": [{"primitives": [{"mode": 4, "attributes": {"POSITION": 0}, "indices": 1, "material": 0}]}], "nodes": [{"mesh": 0}], "scenes": [{"nodes": [0]}], "scene": 0}