# Blender v2.90.0 OBJ File: 'untitled.blend'
# www.blender.org
mtllib blob.mtl
o Icosphere
v 0.202718 0.338850 0.633584
v -0.675346 0.432313 0.506548
v -0.696307 0.470334 -0.547661
v 0.248287 0.374572 -0.714314
v 0.932572 0.442960 0.008327
v -0.000036 0.869861 0.011312
v 0.958059 -0.004888 0.311165
v 0.952531 -0.001029 -0.309466
v 0.000000 0.000000 1.000000
v 0.583286 0.017905 0.789921
v -0.958059 -0.004888 0.311165
v -0.583286 0.017905 0.789921
v -0.587786 0.000000 -0.809017
v -0.952531 -0.001029 -0.309466
v 0.587786 0.000000 -0.809017
v 0.000000 0.000000 -1.000000
v 0.607364 0.557866 0.503603
v -0.191855 0.401715 0.594707
v -0.880249 0.525707 -0.001002
v -0.204927 0.406321 -0.654326
v 0.704218 0.541544 -0.511644
v 0.382118 0.730588 0.388541
v 0.502819 0.840303 0.019265
v -0.444712 0.696942 0.266732
v -0.319480 0.697741 -0.264486
v 0.180196 0.805335 -0.472935
vt 0.000000 0.000000
vt 0.000000 0.000000
vt 0.000000 0.000000
vt 0.000000 0.000000
vt 0.000000 0.000000
vt 0.000000 0.000000
vt 0.000000 0.000000
vt 0.000000 0.000000
vt 0.818181 0.314921
vt 0.727272 0.314921
vt 0.772726 0.393651
vt 1.000000 0.314921
vt 0.909091 0.314921
vt 0.954545 0.393651
vt 0.272727 0.314921
vt 0.181818 0.314921
vt 0.227273 0.393651
vt 0.454545 0.314921
vt 0.363636 0.314921
vt 0.409090 0.393651
vt 0.636363 0.314921
vt 0.545454 0.314921
vt 0.590909 0.393651
vt 0.500000 0.393651
vt 0.545454 0.472382
vt 0.318182 0.393651
vt 0.363636 0.472382
vt 0.136363 0.393651
vt 0.181818 0.472382
vt 0.090909 0.314921
vt 0.863635 0.393651
vt 0.909090 0.472382
vt 0.681818 0.393651
vt 0.727272 0.472382
vt 0.590909 0.236191
vt 0.500000 0.236191
vt 0.409090 0.236191
vt 0.318182 0.236191
vt 0.227273 0.236191
vt 0.136363 0.236191
vt 0.954545 0.236191
vt 0.863635 0.236191
vt 0.772726 0.236191
vt 0.681818 0.236191
vt 0.000000 0.000000
vt 0.000000 0.000000
vt 0.045454 0.236191
vn 0.0000 -0.9964 -0.0849
vn -0.0678 -0.9977 -0.0056
vn 0.0000 -0.9989 0.0476
vn 0.0000 -1.0000 -0.0021
vn -0.0195 0.5366 0.8436
vn -0.0831 0.7080 0.7013
vn -0.3786 0.8994 -0.2185
vn -0.0824 0.4772 -0.8749
vn 0.6685 0.7273 -0.1557
vn 0.0601 0.9921 -0.1098
vn 0.4056 0.8537 -0.3265
vn 0.1907 0.5026 -0.8432
vn -0.2969 0.9258 -0.2339
vn -0.4037 0.6719 -0.6209
vn -0.0272 0.7968 -0.6036
vn -0.4076 0.9082 -0.0947
vn -0.3245 0.9429 -0.0751
vn -0.5225 0.7759 0.3537
vn -0.1002 0.8961 0.4323
vn -0.1336 0.6832 0.7179
vn 0.0009 0.5300 0.8480
vn 0.0513 0.9526 0.2998
vn 0.4306 0.8170 0.3835
vn 0.6576 0.7039 0.2685
vn 0.8966 0.2837 -0.3400
vn 0.7988 0.1484 -0.5830
vn 0.2307 0.4298 -0.8730
vn -0.0584 0.6296 -0.7747
vn -0.2587 0.5469 -0.7962
vn -0.1311 0.4582 -0.8791
vn -0.8891 0.3159 -0.3312
vn -0.9900 0.1405 -0.0079
vn -0.8395 0.3617 0.4055
vn -0.1173 0.5427 0.8317
vn -0.2468 0.6273 0.7386
vn 0.0466 0.7204 0.6920
vn 0.0310 0.4672 0.8836
vn 0.7632 0.2758 0.5843
vn 0.8174 0.3539 0.4546
vn 0.2741 0.4617 -0.8436
vn -0.7998 0.1398 -0.5837
vn 0.0000 -1.0000 0.0000
vn -0.7710 0.2338 0.5924
vn 0.2423 0.6418 0.7276
vn 0.9987 0.0510 -0.0086
vn 0.0000 -0.9999 0.0172
vn 0.0167 -0.9998 -0.0061
usemtl None
s off
f 9/1/1 12/2/1 10/3/1
f 7/4/2 10/3/2 8/5/2
f 10/3/3 12/2/3 11/6/3
f 8/5/4 14/7/4 13/8/4
f 1/9/5 17/10/5 22/11/5
f 2/12/6 18/13/6 24/14/6
f 3/15/7 19/16/7 25/17/7
f 4/18/8 20/19/8 26/20/8
f 5/21/9 21/22/9 23/23/9
f 23/23/10 26/24/10 6/25/10
f 23/23/11 21/22/11 26/24/11
f 21/22/12 4/18/12 26/24/12
f 26/20/13 25/26/13 6/27/13
f 26/20/14 20/19/14 25/26/14
f 20/19/15 3/15/15 25/26/15
f 25/17/16 24/28/16 6/29/16
f 25/17/17 19/16/17 24/28/17
f 19/16/18 2/30/18 24/28/18
f 24/14/19 22/31/19 6/32/19
f 24/14/20 18/13/20 22/31/20
f 18/13/21 1/9/21 22/31/21
f 22/11/22 23/33/22 6/34/22
f 22/11/23 17/10/23 23/33/23
f 17/10/24 5/21/24 23/33/24
f 8/35/25 21/22/25 5/21/25
f 8/35/26 15/36/26 21/22/26
f 15/36/27 4/18/27 21/22/27
f 16/37/28 20/19/28 4/18/28
f 16/37/29 13/38/29 20/19/29
f 13/38/30 3/15/30 20/19/30
f 14/39/31 19/16/31 3/15/31
f 14/39/32 11/40/32 19/16/32
f 11/40/33 2/30/33 19/16/33
f 12/41/34 18/13/34 2/12/34
f 12/41/35 9/42/35 18/13/35
f 9/42/36 1/9/36 18/13/36
f 10/43/37 17/10/37 1/9/37
f 10/43/38 7/44/38 17/10/38
f 7/44/39 5/21/39 17/10/39
f 15/36/40 16/37/40 4/18/40
f 13/38/41 14/39/41 3/15/41
f 15/45/42 13/8/42 16/46/42
f 11/40/43 12/47/43 2/30/43
f 8/5/4 13/8/4 15/45/4
f 9/42/44 10/43/44 1/9/44
f 7/44/45 8/35/45 5/21/45
f 10/3/46 14/7/46 8/5/46
f 10/3/47 11/6/47 14/7/47
