{"asset": {"version": "2.0", "generator": "CS460 Magic Fingers"}, "accessors": [{"bufferView": 0, "byteOffset": 0, "componentType": 5123, "count": 17412, "type": "SCALAR", "max": [4582], "min": [0]}, {"bufferView": 1, "byteOffset": 0, "componentType": 5126, "count": 4583.0, "type": "VEC3", "max": [5.998088, 2.75972, 1.701405], "min": [-4.445835, -3.637036, -1.701405]}], "bufferViews": [{"buffer": 0, "byteOffset": 0, "byteLength": 34824, "target": 34963}, {"buffer": 1, "byteOffset": 0, "byteLength": 54996, "target": 34962}], "buffers": [{"uri": "data:application/octet-stream;base64,", "byteLength": 34824}, {"uri": "data:application/octet-stream;base64,", "byteLength": 54996}], "materials": [{"pbrMetallicRoughness": {"baseColorFactor": [1.0, 0.75, 0.35, 1.0]}}], "meshes": [{"primitives": [{"mode": 4, "material": 0, "indices": 0, "attributes": {"POSITION": 1}}]}], "nodes": [{"mesh": 0}], "scenes": [{"nodes": [0]}], "scene": 0}
