{"asset": {"version": "2.0", "generator": "CS460 Magic Fingers"}, "accessors": [{"bufferView": 0, "byteOffset": 0, "componentType": 5123, "count": 3072, "type": "SCALAR", "max": [529], "min": [0]}, {"bufferView": 1, "byteOffset": 0, "componentType": 5126, "count": 530.0, "type": "VEC3", "max": [98.2769, 49.6647, 55.7428], "min": [-84.4453, -39.8754, -57.9589]}, {"bufferView": 2, "byteOffset": 0, "componentType": 5126, "count": 530.0, "type": "VEC3", "max": [0.999599, 1.0, 0.99985], "min": [-0.997804, -1.0, -0.999892]}], "bufferViews": [{"buffer": 0, "byteOffset": 0, "byteLength": 6144, "target": 34963}, {"buffer": 1, "byteOffset": 0, "byteLength": 6360, "target": 34962}, {"buffer": 2, "byteOffset": 0, "byteLength": 6360, "target": 34962}], "buffers": [{"uri": "data:application/octet-stream;base64,", "byteLength": 6144}, {"uri": "data:application/octet-stream;base64,", "byteLength": 6360}, {"uri": "data:application/octet-stream;base64,", "byteLength": 6360}], "meshes": [{"primitives": [{"mode": 4, "indices": 0, "attributes": {"POSITION": 1, "NORMAL": 2}}]}], "nodes": [{"mesh": 0}], "scenes": [{"nodes": [0]}], "scene": 0}
