<?xml version="1.0" encoding="UTF-8" standalone="no"?>
<svg xmlns:rdf="http://www.w3.org/1999/02/22-rdf-syntax-ns#" xmlns="http://www.w3.org/2000/svg" xml:space="preserve" height="149.35" viewBox="0 0 112 149.34744" width="112" version="1.1" xmlns:cc="http://creativecommons.org/ns#" xmlns:dc="http://purl.org/dc/elements/1.1/"><g transform="matrix(1.25 0 0 -1.25 94.801 866.83)"><path d="m1.1152 1.1855v89.32h17.219c-3.139-1.515-5.279-4.925-5.287-8.281 0.059-16.404 40.319-48.255 40.236-58.414-0.008-3.294-3.717-4.311-7.748-4.311-8.365 0.022-31.806 10.824-31.834 26.639 0.016 5.773 3.401 8.939 10.01 10.533l0.471 0.101-0.418 0.254c-1.697 0.976-3.599 1.44-5.51 1.44-5.455-0.011-10.928-3.827-10.928-10.297 0.014-6.237 12.815-31.513 41.465-31.555 1.628 0.004 3.091 0.132 4.418 0.344l-13.729-15.774-38.365 0.0005zm70.731 0l-14.635 16.812c4.65 1.824 6.478 5.13 6.486 7.84-0.063 11.696-41.087 48.468-41.019 58.424 0.045 2.16 0.859 2.464 3.195 2.506 18.653 0.065 52.642-45.643 62.492-58.807 3.927-0.679 3.89-0.159 8.026-0.606l0.49-0.052-0.324 0.381c-9.752 12.843-25.133 41.767-25.127 52.814 0 2.819 0.565 5.08 1.855 6.504 0.829 1.173 2.313 1.801 4.266 1.801 5.924-0.03 13.98-9.819 13.996-21.239v-0.39l0.308 0.236c2.261 1.731 3.331 4.277 3.331 6.811-0.008 7.067-5.382 13.415-12.194 16.285h27.218v-89.32l-38.364-0.0005zm10.66 98.482c-4.164 0-8.299 2.242-8.299 6.852 0 2.79 1.699 5.16 4.326 6.09 0.962 0.35 1.987 0.57 3.012 0.77 1.183 0.25 3.717 0.6 3.717 2.27 0 1.6-2.053 1.99-3.303 1.99-1.345 0-2.754-0.36-3.809-1.22-0.548-0.45-0.833-0.93-1.187-1.54l-3.651 2.85c1.858 3.05 5.671 4.04 9.032 4.04 4.421 0 8.552-2.24 8.552-7.14 0-3.08-1.762-5.23-4.644-6.15-0.991-0.32-2.018-0.55-3.043-0.77-1.124-0.26-3.555-0.61-3.555-2.15 0-1.41 1.793-1.82 2.914-1.82 1.794 0 2.914 0.67 4.037 2.05l3.424-2.79c-1.952-2.44-4.483-3.332-7.523-3.332zm20.194 0c-4.168 0-8.302 2.242-8.302 6.852 0 2.79 1.7 5.16 4.327 6.09 0.961 0.35 1.985 0.57 3.005 0.77 1.19 0.25 3.72 0.6 3.72 2.27 0 1.6-2.05 1.99-3.3 1.99-1.34 0-2.756-0.36-3.81-1.22-0.548-0.45-0.832-0.93-1.186-1.54l-3.652 2.85c1.857 3.05 5.671 4.04 9.028 4.04 4.42 0 8.56-2.24 8.56-7.14 0-3.08-1.77-5.23-4.65-6.15-0.99-0.32-2.02-0.55-3.04-0.77-1.12-0.26-3.556-0.61-3.556-2.15 0-1.41 1.796-1.82 2.916-1.82 1.79 0 2.91 0.67 4.04 2.05l3.42-2.79c-1.95-2.44-4.48-3.332-7.52-3.332zm-101.44 0.352v13.45c0 1.93 0.064 3.46 1.1816 5.09 1.6358 2.41 4.4849 3.21 7.2402 3.21 2.6604 0 5.5744-0.71 7.3024-2.89 1.409-1.76 1.537-3.23 1.537-5.41v-13.45h-4.613v12.52c0 1.6 0.036 3.4-1.537 4.3-0.576 0.32-1.216 0.51-1.887 0.51-1.0895 0-2.2424-0.48-2.818-1.44-0.5776-1-0.5469-2.28-0.5469-3.37v-12.52h-5.8593zm22.922 0v21.36h4.613v-15.37l4.709 15.37h3.459l4.805-15.37v15.37h5.89v-21.36h-8.388l-3.43 10.6-3.17-10.6h-8.488zm33.914 0l-6.727 21.36h4.838l1.184-4.23h6.726l1.217 4.23h6.057l-6.633-21.36h-6.662zm2.689 5.48l2.084 7.17h-4.164l2.08-7.17zm-32.422 23.86c-3.056 0-6.028 1.59-7.332 4.43-0.724 1.58-1.002 3.44-1.002 5.16 0 3.5 1.002 6.86 4.28 8.58 1.248 0.67 2.638 1 4.054 1 5.388 0 8.307-4.19 8.307-9.27 0-3.62-0.861-7.06-4.279-8.89-1.25-0.67-2.637-1.01-4.028-1.01zm19.075 0c-3.612 0-7.196 1.95-7.196 5.95 0 2.42 1.474 4.47 3.748 5.28 0.837 0.3 1.723 0.5 2.614 0.67 1.028 0.22 3.224 0.52 3.224 1.97 0 1.39-1.779 1.72-2.865 1.72-1.163 0-2.387-0.31-3.303-1.06-0.471-0.38-0.725-0.8-1.029-1.33l-3.166 2.48c1.61 2.63 4.918 3.49 7.834 3.49 3.831 0 7.416-1.94 7.416-6.19 0-2.67-1.525-4.53-4.027-5.33-0.861-0.28-1.749-0.48-2.639-0.67-0.971-0.22-3.086-0.53-3.086-1.86 0-1.23 1.558-1.59 2.529-1.59 1.557 0 2.527 0.59 3.5 1.78l2.973-2.42c-1.695-2.11-3.889-2.89-6.527-2.89zm35.595 0c-3.056 0-6.028 1.59-7.332 4.43-0.724 1.58-1.004 3.44-1.004 5.16 0 3.5 1.004 6.86 4.282 8.58 1.248 0.67 2.638 1 4.054 1 5.388 0 8.307-4.19 8.307-9.27 0-3.62-0.861-7.06-4.279-8.89-1.251-0.67-2.637-1.01-4.028-1.01zm-81.947 0.31v18.53h8.6407c1.1944 0 2.4464-0.02 3.6134-0.33 2.277-0.56 3.609-2.25 3.609-4.61 0-2.78-1.638-3.84-4.027-4.62 0.779-0.27 1.418-0.52 2.058-1.05 0.972-0.81 1.582-1.95 1.582-3.22 0-3.45-3.277-4.7-6.22-4.7h-9.2561zm56.053 0v3.89h5.025v14.64h5.088v-14.64h5.025v-3.89h-15.138zm37.922 0v18.53h4.001v-10.5l7.228 10.5h3.97v-18.53h-3.97v9.42l-6.56-9.42h-4.669zm-66.698 3.39c2.694 0 2.975 3.61 2.975 5.56 0 2.05-0.059 6.19-2.975 6.19-2.834 0-2.998-3.83-2.998-5.86s0.164-5.89 2.998-5.89zm54.67 0c2.694 0 2.973 3.61 2.973 5.56 0 2.05-0.057 6.19-2.973 6.19-2.834 0-2.998-3.83-2.998-5.86s0.164-5.89 2.998-5.89zm-76.834 0.14h2.668c1.2778 0 2.5288 0.31 2.5288 1.83 0 1.67-1.113 1.95-2.5034 1.95h-2.6934v-3.78zm0 7.39h2.1113c1.529 0 3.3085 0.22 3.3085 2.14 0 2.03-1.9442 1.94-3.4178 1.94h-2.002v-4.08z" transform="matrix(.8 0 0 -.8 -75.841 693.46)" fill="#005a8b"/></g></svg>
